<svg xmlns="http://www.w3.org/2000/svg" xmlns:xlink="http://www.w3.org/1999/xlink" viewBox="0 0 600 500">
  <defs>
    <path id="a" d="M0 139h106a9 9 0 0 1 9 9v12h85V0H0v139Z"/>
  </defs>
  <g fill="none" fill-rule="evenodd">
    <path fill="#FFF" fill-opacity=".33" fill-rule="nonzero" d="M537 361.5c0-1.9 1.6-3.5 3.5-3.5s3.5 1.6 3.5 3.5-1.6 3.5-3.5 3.5-3.5-1.6-3.5-3.5Zm0-14c0-1.9 1.6-3.5 3.5-3.5s3.5 1.6 3.5 3.5-1.6 3.5-3.5 3.5-3.5-1.6-3.5-3.5Zm0-14c0-1.9 1.6-3.5 3.5-3.5s3.5 1.6 3.5 3.5-1.6 3.5-3.5 3.5-3.5-1.6-3.5-3.5Zm0-14c0-1.9 1.6-3.5 3.5-3.5s3.5 1.6 3.5 3.5-1.6 3.5-3.5 3.5-3.5-1.6-3.5-3.5Zm0-14c0-1.9 1.6-3.5 3.5-3.5s3.5 1.6 3.5 3.5-1.6 3.5-3.5 3.5-3.5-1.6-3.5-3.5Zm0-14c0-1.9 1.6-3.5 3.5-3.5s3.5 1.6 3.5 3.5-1.6 3.5-3.5 3.5-3.5-1.6-3.5-3.5Zm0-14c0-1.9 1.6-3.5 3.5-3.5s3.5 1.6 3.5 3.5-1.6 3.5-3.5 3.5-3.5-1.6-3.5-3.5Zm0-14c0-1.9 1.6-3.5 3.5-3.5s3.5 1.6 3.5 3.5-1.6 3.5-3.5 3.5-3.5-1.6-3.5-3.5Zm0-14c0-1.9 1.6-3.5 3.5-3.5s3.5 1.6 3.5 3.5-1.6 3.5-3.5 3.5-3.5-1.6-3.5-3.5Zm0-14c0-1.9 1.6-3.5 3.5-3.5s3.5 1.6 3.5 3.5-1.6 3.5-3.5 3.5-3.5-1.6-3.5-3.5Zm0-14c0-1.9 1.6-3.5 3.5-3.5s3.5 1.6 3.5 3.5-1.6 3.5-3.5 3.5-3.5-1.6-3.5-3.5Zm-14 140c0-1.9 1.6-3.5 3.5-3.5s3.5 1.6 3.5 3.5-1.6 3.5-3.5 3.5c-2 0-3.5-1.6-3.5-3.5Zm-14 0c0-1.9 1.6-3.5 3.5-3.5s3.5 1.6 3.5 3.5-1.6 3.5-3.5 3.5c-2 0-3.5-1.6-3.5-3.5Zm-14 0c0-1.9 1.6-3.5 3.5-3.5s3.5 1.6 3.5 3.5-1.6 3.5-3.5 3.5c-2 0-3.5-1.6-3.5-3.5Zm-14 0c0-1.9 1.6-3.5 3.5-3.5s3.5 1.6 3.5 3.5-1.6 3.5-3.5 3.5c-2 0-3.5-1.6-3.5-3.5Z"/>
    <g transform="translate(370 60)">
      <mask id="b" fill="#fff">
        <use xlink:href="#a"/>
      </mask>
      <use xlink:href="#a" fill="#000"/>
      <path fill="#323232" fill-rule="nonzero" stroke="#0B0C0C" stroke-width="6" d="M197 3v154H3V3h194Z" mask="url(#b)"/>
      <rect width="50" height="6" x="58" y="70" fill="#00CC6D" mask="url(#b)" rx="2"/>
      <path fill="#00CC6D" d="M20.89 72.2a3.06 3.06 0 0 1 4.3 0l3.58 3.55 15.04-14.87a3.06 3.06 0 0 1 4.3 0 2.98 2.98 0 0 1 0 4.25l-17.2 16.99a3.06 3.06 0 0 1-4.29 0l-5.73-5.66a2.98 2.98 0 0 1 0-4.25Z" mask="url(#b)"/>
      <rect width="64" height="6" x="58" y="32" fill="#D4351C" mask="url(#b)" rx="2"/>
      <path fill="#D4351C" d="M22.86 23.86a2.95 2.95 0 0 1 4.18 0L34 30.82l6.96-6.96a2.95 2.95 0 0 1 4.18 4.18L38.18 35l6.96 6.96a2.95 2.95 0 0 1-4.18 4.18L34 39.18l-6.96 6.96a2.95 2.95 0 0 1-4.18-4.18L29.82 35l-6.96-6.96a2.95 2.95 0 0 1 0-4.18Z" mask="url(#b)"/>
    </g>
    <path fill="#FFF" fill-opacity=".33" fill-rule="nonzero" d="M77 265.5c0-1.9-1.6-3.5-3.5-3.5s-3.5 1.6-3.5 3.5 1.6 3.5 3.5 3.5 3.5-1.6 3.5-3.5Zm0-14c0-1.9-1.6-3.5-3.5-3.5s-3.5 1.6-3.5 3.5 1.6 3.5 3.5 3.5 3.5-1.6 3.5-3.5Zm0-14c0-1.9-1.6-3.5-3.5-3.5s-3.5 1.6-3.5 3.5 1.6 3.5 3.5 3.5 3.5-1.6 3.5-3.5Zm0-14c0-1.9-1.6-3.5-3.5-3.5s-3.5 1.6-3.5 3.5 1.6 3.5 3.5 3.5 3.5-1.6 3.5-3.5Zm0-14c0-1.9-1.6-3.5-3.5-3.5s-3.5 1.6-3.5 3.5 1.6 3.5 3.5 3.5 3.5-1.6 3.5-3.5Zm0-14c0-1.9-1.6-3.5-3.5-3.5s-3.5 1.6-3.5 3.5 1.6 3.5 3.5 3.5 3.5-1.6 3.5-3.5Zm0-14c0-1.9-1.6-3.5-3.5-3.5s-3.5 1.6-3.5 3.5 1.6 3.5 3.5 3.5 3.5-1.6 3.5-3.5Zm0-14c0-1.9-1.6-3.5-3.5-3.5s-3.5 1.6-3.5 3.5 1.6 3.5 3.5 3.5 3.5-1.6 3.5-3.5Zm0-14c0-1.9-1.6-3.5-3.5-3.5s-3.5 1.6-3.5 3.5 1.6 3.5 3.5 3.5 3.5-1.6 3.5-3.5Zm14 112c0-1.9-1.6-3.5-3.5-3.5s-3.5 1.6-3.5 3.5 1.6 3.5 3.5 3.5c2 0 3.5-1.6 3.5-3.5Zm14 0c0-1.9-1.6-3.5-3.5-3.5s-3.5 1.6-3.5 3.5 1.6 3.5 3.5 3.5c2 0 3.5-1.6 3.5-3.5Zm14 0c0-1.9-1.6-3.5-3.5-3.5s-3.5 1.6-3.5 3.5 1.6 3.5 3.5 3.5c2 0 3.5-1.6 3.5-3.5Zm14 0c0-1.9-1.6-3.5-3.5-3.5s-3.5 1.6-3.5 3.5 1.6 3.5 3.5 3.5c2 0 3.5-1.6 3.5-3.5Z"/>
    <path fill="#FFF" d="M138 206h340v230H138z" opacity=".3"/>
    <path fill="#1E1E1E" fill-rule="nonzero" d="M476.42 198.5c5.55 0 9.08 3.82 9.08 9.81V446.5h-355V208.31c0-6 3.53-9.81 9.08-9.81h336.84ZM280 206H142a4 4 0 0 0-4 4v226h340V210a4 4 0 0 0-4-4H336v6a3 3 0 0 1-3 3h-50a3 3 0 0 1-3-3v-6Z"/>
    <path fill="#EDEDED" fill-rule="nonzero" d="M486 446h-1V207.5c0-5-3.5-8.5-8.5-8.5h-337c-5 0-8.5 3.5-8.5 8.5V446h-1V207.5c0-5.5 4-9.5 9.5-9.5h337c5.5 0 9.5 4 9.5 9.5V446Z"/>
    <path fill="#808283" fill-rule="nonzero" d="M269 446h78v7h-78z"/>
    <path fill="#B1B4B6" fill-rule="nonzero" d="M339.5 452.5H276c-5 0-6.5-3-6.5-6.5H80l.06 10.04a8 8 0 0 0 8 7.96H528a8 8 0 0 0 8-8v-10H346.5c0 4-2 6.5-7 6.5Z"/>
    <path stroke="#EDEDED" d="M536 446.5H346.5c0 4-2.5 6-6.5 6h-64c-4 0-6.5-2-6.5-6H80"/>
    <path fill="#A5A9AB" fill-rule="nonzero" d="M80 456v.1a8 8 0 0 0 8 7.9h440a7.9 7.9 0 0 0 7.9-8 8.5 8.5 0 0 1-5.49 2.01L85.88 458a9.6 9.6 0 0 1-5.88-2Z"/>
    <path fill="#000" fill-opacity=".5" fill-rule="nonzero" d="M105 466h406l20 4H85z"/>
    <path fill="#505A5F" fill-rule="nonzero" d="m107.4 464 5.7 3h38.6l5.7-3zm352 0 5.7 3h38.6l5.7-3z"/>
    <path fill="#FFF" fill-rule="nonzero" stroke="#0B0C0C" stroke-width="4" d="M20 2h196v148H20z"/>
    <path fill="#0B0C0C" d="M30 12h156v15H30z"/>
    <path fill="#B1B4B6" fill-rule="nonzero" d="M31 40h82v9H31v-9Zm0 21h113v9H31v-9Z"/>
    <path fill="#FD0" fill-rule="nonzero" d="M31 82h96v15H31z"/>
    <path fill="#0B0C0C" fill-rule="nonzero" d="M31 97h96v2H31z"/>
    <g fill-rule="nonzero">
      <path fill="#FFF" fill-opacity=".5" d="M252 147h28v9h-28v-9Zm0-56h28v9h-28v-9Z"/>
      <g transform="translate(192 127)">
        <circle cx="24" cy="24" r="20" fill="#FFF"/>
        <path fill="#0B0C0C" d="M24 8c8.8 0 16 7.2 16 16s-7.2 16-16 16S8 32.8 8 24 15.2 8 24 8m0-4C13 4 4 13 4 24s9 20 20 20 20-9 20-20S35 4 24 4Z"/>
        <path fill="#FD0" d="M24 4c11 0 20 9 20 20s-9 20-20 20S4 35 4 24 13 4 24 4m0-4C10.7 0 0 10.7 0 24s10.7 24 24 24 24-10.7 24-24A24 24 0 0 0 24 0Z"/>
        <circle cx="24" cy="24" r="10" fill="#0B0C0C"/>
      </g>
      <path fill="#FFF" d="M197 77h36v36h-36z"/>
      <path fill="#0B0C0C" d="M231 79v32h-32V79h32m4-4h-40v40h40V75Z"/>
      <path fill="#0B0C0C" d="M228 88.54 224.46 85 211.6 97.83l-5.06-5.05-3.54 3.63 8.6 8.59L228 88.54"/>
      <path fill="#FD0" d="M235 75v40h-40V75h40m3-3h-46v46h46V72Z"/>
    </g>
    <g transform="translate(0 340)">
      <path fill="#000" fill-opacity=".33" fill-rule="nonzero" d="M60 156h40l20 4H40z"/>
      <circle cx="80" cy="80" r="80" fill="#8821AA"/>
      <path fill="#FFF" fill-rule="nonzero" d="M80.01 41.9c-3 0-5.59-1.07-7.73-3.21a10.51 10.51 0 0 1-3.23-7.73c0-3 1.07-5.59 3.21-7.73A10.51 10.51 0 0 1 80 20c3 0 5.59 1.07 7.73 3.21a10.51 10.51 0 0 1 3.23 7.73c0 3-1.07 5.58-3.21 7.73A10.51 10.51 0 0 1 80 41.9ZM63.95 140V60.05c-6.8-.5-13.38-1.2-19.73-2.1-6.34-.9-12.42-2.05-18.22-3.45l2.25-9c8.5 2 16.95 3.42 25.35 4.27 8.4.85 17.2 1.28 26.4 1.28s18-.42 26.4-1.27c8.4-.86 16.85-2.28 25.35-4.28l2.25 9c-5.8 1.4-11.88 2.55-18.22 3.45-6.36.9-12.93 1.6-19.73 2.12V140h-9v-39h-14.1v39h-9Z"/>
    </g>
    <path fill="#FFF" fill-rule="nonzero" stroke="#0B0C0C" stroke-width="2" d="M179 250h258v148H179z"/>
    <path fill="#0B0C0C" fill-rule="nonzero" d="M179 250h258v28H179z"/>
    <text fill="#FFF" font-family="system-ui, sans-serif" font-size="16" transform="translate(180 250)">
      <tspan x="16" y="20">Service</tspan>
    </text>
    <path fill="#B1B4B6" fill-rule="nonzero" d="M196 292h82v9h-82v-9Zm0 18h171v9H196v-9Zm0 18h171v9H196v-9Zm0 18h113v9H196v-9Z"/>
    <path fill="#00703C" fill-rule="nonzero" d="M196 367h96v15h-96z"/>
    <path fill="#0B0C0C" fill-rule="nonzero" d="M196 382h96v2h-96z"/>
  </g>
</svg>
